<!-- 
  Medical Device Website - SVG Icon Sprites
  Usage: <svg class="icon"><use href="/src/icons.svg#icon-name"></use></svg>
-->
<svg xmlns="http://www.w3.org/2000/svg" style="display: none;">
  
  <!-- Phone Icon -->
  <symbol id="icon-phone" viewBox="0 0 24 24" fill="none" stroke="currentColor" stroke-width="2">
    <path d="M22 16.92v3a2 2 0 0 1-2.18 2 19.79 19.79 0 0 1-8.63-3.07 19.5 19.5 0 0 1-6-6 19.79 19.79 0 0 1-3.07-8.67A2 2 0 0 1 4.11 2h3a2 2 0 0 1 2 1.72 12.84 12.84 0 0 0 .7 2.81 2 2 0 0 1-.45 2.11L8.09 9.91a16 16 0 0 0 6 6l1.27-1.27a2 2 0 0 1 2.11-.45 12.84 12.84 0 0 0 2.81.7A2 2 0 0 1 22 16.92z"/>
  </symbol>

  <!-- Email Icon -->
  <symbol id="icon-email" viewBox="0 0 24 24" fill="none" stroke="currentColor" stroke-width="2">
    <path d="M4 4h16c1.1 0 2 .9 2 2v12c0 1.1-.9 2-2 2H4c-1.1 0-2-.9-2-2V6c0-1.1.9-2 2-2z"/>
    <polyline points="22,6 12,13 2,6"/>
  </symbol>

  <!-- Location/Map Pin Icon -->
  <symbol id="icon-location" viewBox="0 0 24 24" fill="none" stroke="currentColor" stroke-width="2">
    <path d="M21 10c0 7-9 13-9 13s-9-6-9-13a9 9 0 0 1 18 0z"/>
    <circle cx="12" cy="10" r="3"/>
  </symbol>

  <!-- Medical Cross / Hospital Icon -->
  <symbol id="icon-medical" viewBox="0 0 24 24" fill="currentColor">
    <path d="M19 3H5c-1.1 0-2 .9-2 2v14c0 1.1.9 2 2 2h14c1.1 0 2-.9 2-2V5c0-1.1-.9-2-2-2zm-2 10h-4v4h-2v-4H7v-2h4V7h2v4h4v2z"/>
  </symbol>

  <!-- Stethoscope Icon -->
  <symbol id="icon-stethoscope" viewBox="0 0 24 24" fill="currentColor">
    <path d="M19 8c-1.66 0-3 1.34-3 3 0 .55.15 1.06.41 1.5l-2.91 2.91c-.44-.26-.95-.41-1.5-.41-1.66 0-3 1.34-3 3s1.34 3 3 3 3-1.34 3-3c0-.55-.15-1.06-.41-1.5l2.91-2.91c.44.26.95.41 1.5.41 1.66 0 3-1.34 3-3s-1.34-3-3-3zM12 18c-.55 0-1-.45-1-1s.45-1 1-1 1 .45 1 1-.45 1-1 1zm7-6c-.55 0-1-.45-1-1s.45-1 1-1 1 .45 1 1-.45 1-1 1zM8 6c0-2.21-1.79-4-4-4S0 3.79 0 6c0 1.86 1.28 3.41 3 3.86V16c0 2.21 1.79 4 4 4h2v-2H7c-1.1 0-2-.9-2-2V9.86c1.72-.45 3-2 3-3.86zM4 7c-.55 0-1-.45-1-1s.45-1 1-1 1 .45 1 1-.45 1-1 1z"/>
  </symbol>

  <!-- Baby/Pediatric Icon -->
  <symbol id="icon-baby" viewBox="0 0 24 24" fill="currentColor">
    <circle cx="14.5" cy="10.5" r="1.25"/>
    <circle cx="9.5" cy="10.5" r="1.25"/>
    <path d="M22.94 12.66c.04-.21.06-.43.06-.66s-.02-.45-.06-.66c-.08-.46-.36-.84-.78-1.03C21.74 10.13 21.38 10 21 10H3c-.38 0-.74.13-1.16.31-.42.19-.7.57-.78 1.03-.04.21-.06.43-.06.66s.02.45.06.66c.08.46.36.84.78 1.03.42.18.78.31 1.16.31h18c.38 0 .74-.13 1.16-.31.42-.19.7-.57.78-1.03zM12 4c2.21 0 4 1.79 4 4h-2c0-1.1-.9-2-2-2s-2 .9-2 2H8c0-2.21 1.79-4 4-4zm0 16c-2.21 0-4-1.79-4-4h2c0 1.1.9 2 2 2s2-.9 2-2h2c0 2.21-1.79 4-4 4z"/>
  </symbol>

  <!-- Surgery/Scalpel Icon -->
  <symbol id="icon-surgery" viewBox="0 0 24 24" fill="currentColor">
    <path d="M20.71 7.04c.39-.39.39-1.02 0-1.41l-2.34-2.34c-.39-.39-1.02-.39-1.41 0l-1.84 1.83 3.75 3.75 1.84-1.83zM3 17.25V21h3.75L17.81 9.94l-3.75-3.75L3 17.25zM5.92 19H5v-.92l9.06-9.06.92.92L5.92 19z"/>
  </symbol>

  <!-- Lab/Test Tube Icon -->
  <symbol id="icon-lab" viewBox="0 0 24 24" fill="currentColor">
    <path d="M7 2v2h1v14c0 2.21 1.79 4 4 4s4-1.79 4-4V4h1V2H7zm6 14c-.55 0-1-.45-1-1s.45-1 1-1 1 .45 1 1-.45 1-1 1zm2-4c-.55 0-1-.45-1-1s.45-1 1-1 1 .45 1 1-.45 1-1 1zm-1-4V4h-4v4l-1 8h6l-1-8z"/>
  </symbol>

  <!-- Imaging/X-Ray Icon -->
  <symbol id="icon-imaging" viewBox="0 0 24 24" fill="currentColor">
    <path d="M19 3H5c-1.1 0-2 .9-2 2v14c0 1.1.9 2 2 2h14c1.1 0 2-.9 2-2V5c0-1.1-.9-2-2-2zm0 16H5V5h14v14zm-7-2h2v-4h4v-2h-4V7h-2v4H8v2h4z"/>
  </symbol>

  <!-- Child/Pediatric Department Icon -->
  <symbol id="icon-child" viewBox="0 0 24 24" fill="currentColor">
    <circle cx="12" cy="4" r="2"/>
    <path d="M15.89 8.11C15.5 7.72 14.83 7 13.53 7h-3.06c-1.3 0-1.97.72-2.36 1.11L6.7 9.52c-.59.59-.59 1.54 0 2.12.59.59 1.54.59 2.12 0l1.19-1.19V21h2v-6h2v6h2V10.45l1.19 1.19c.59.59 1.54.59 2.12 0 .59-.59.59-1.54 0-2.12l-1.43-1.41z"/>
  </symbol>

  <!-- Microscope Icon -->
  <symbol id="icon-microscope" viewBox="0 0 24 24" fill="currentColor">
    <path d="M13.23 13.5c.67-.14 1.27-.48 1.77-1M19 22H5v-2h14v2zM10.02 12.79c.06.56-.06 1.1-.36 1.57-.3.47-.72.85-1.22 1.11-1.18.62-2.6.36-3.51-.62-.53-.57-.77-1.28-.76-2 0-.19.02-.38.06-.57l-1.36-.72c-.5.78-.76 1.71-.73 2.67.04 1.22.54 2.4 1.44 3.3 1.3 1.32 3.17 1.71 4.85 1.04.69-.28 1.31-.7 1.82-1.22.51-.52.91-1.13 1.18-1.8.27-.67.41-1.38.42-2.1 0-.72-.13-1.43-.4-2.09l-1.43.43zM20 5c0-1.65-1.35-3-3-3h-1V0l-2.56 2.15L16 4.5V3h1c.55 0 1 .45 1 1v4.5c0 .55-.45 1-1 1h-3.5l-2.26 1.9L10 9H6.5l4.74 5.31 1.26-1.06v-.75c0-1.38 1.12-2.5 2.5-2.5h3c1.65 0 3-1.35 3-3V5z"/>
  </symbol>

  <!-- Therapy/Rehabilitation Icon -->
  <symbol id="icon-therapy" viewBox="0 0 24 24" fill="currentColor">
    <path d="M13.5 5.5c1.1 0 2-.9 2-2s-.9-2-2-2-2 .9-2 2 .9 2 2 2zM9.8 8.9L7 23h2.1l1.8-8 2.1 2v6h2v-7.5l-2.1-2 .6-3C14.8 12 16.8 13 19 13v-2c-1.9 0-3.5-1-4.3-2.4l-1-1.6c-.4-.6-1-1-1.7-1-.3 0-.5.1-.8.1L6 8.3V13h2V9.6l1.8-.7"/>
  </symbol>

  <!-- Bed/Hospital Furniture Icon -->
  <symbol id="icon-bed" viewBox="0 0 24 24" fill="currentColor">
    <path d="M7 14c1.66 0 3-1.34 3-3S8.66 8 7 8s-3 1.34-3 3 1.34 3 3 3zm0-4c.55 0 1 .45 1 1s-.45 1-1 1-1-.45-1-1 .45-1 1-1zm12-3h-8v8H3V5H1v15h2v-3h18v3h2v-9c0-2.21-1.79-4-4-4z"/>
  </symbol>

  <!-- Target/Aim Icon -->
  <symbol id="icon-target" viewBox="0 0 24 24" fill="currentColor">
    <circle cx="12" cy="12" r="3"/>
    <path d="M12 2C6.48 2 2 6.48 2 12s4.48 10 10 10 10-4.48 10-10S17.52 2 12 2zm0 18c-4.42 0-8-3.58-8-8s3.58-8 8-8 8 3.58 8 8-3.58 8-8 8z"/>
  </symbol>

  <!-- Clock/Time Icon -->
  <symbol id="icon-clock" viewBox="0 0 24 24" fill="none" stroke="currentColor" stroke-width="2">
    <circle cx="12" cy="12" r="10"/>
    <polyline points="12,6 12,12 16,14"/>
  </symbol>

  <!-- Ambulance/Emergency Icon -->
  <symbol id="icon-emergency" viewBox="0 0 24 24" fill="currentColor">
    <path d="M18.92 6.01C18.72 5.42 18.16 5 17.5 5H15V3H9v2H6.5c-.66 0-1.22.42-1.42 1.01L3 12v8c0 .55.45 1 1 1h1c.55 0 1-.45 1-1v-1h12v1c0 .55.45 1 1 1h1c.55 0 1-.45 1-1v-8l-2.08-5.99zM6.5 16c-.83 0-1.5-.67-1.5-1.5S5.67 13 6.5 13s1.5.67 1.5 1.5S7.33 16 6.5 16zm11 0c-.83 0-1.5-.67-1.5-1.5s.67-1.5 1.5-1.5 1.5.67 1.5 1.5-.67 1.5-1.5 1.5zM5 11l1.5-4.5h11L19 11H5z"/>
    <path d="M12 6h-1v2H9v1h2v2h1V9h2V8h-2z"/>
  </symbol>

  <!-- Document/Clipboard Icon -->
  <symbol id="icon-clipboard" viewBox="0 0 24 24" fill="currentColor">
    <path d="M19 3h-4.18C14.4 1.84 13.3 1 12 1c-1.3 0-2.4.84-2.82 2H5c-1.1 0-2 .9-2 2v14c0 1.1.9 2 2 2h14c1.1 0 2-.9 2-2V5c0-1.1-.9-2-2-2zm-7 0c.55 0 1 .45 1 1s-.45 1-1 1-1-.45-1-1 .45-1 1-1zm2 14H7v-2h7v2zm3-4H7v-2h10v2zm0-4H7V7h10v2z"/>
  </symbol>

  <!-- Check/Verified Icon -->
  <symbol id="icon-check" viewBox="0 0 24 24" fill="currentColor">
    <path d="M9 16.17L4.83 12l-1.42 1.41L9 19 21 7l-1.41-1.41z"/>
  </symbol>

  <!-- Arrow Right Icon -->
  <symbol id="icon-arrow-right" viewBox="0 0 24 24" fill="none" stroke="currentColor" stroke-width="2">
    <line x1="5" y1="12" x2="19" y2="12"/>
    <polyline points="12,5 19,12 12,19"/>
  </symbol>

  <!-- Arrow Down Icon -->
  <symbol id="icon-arrow-down" viewBox="0 0 24 24" fill="none" stroke="currentColor" stroke-width="2">
    <polyline points="6,9 12,15 18,9"/>
  </symbol>

  <!-- Menu Icon -->
  <symbol id="icon-menu" viewBox="0 0 24 24" fill="none" stroke="currentColor" stroke-width="2">
    <line x1="3" y1="12" x2="21" y2="12"/>
    <line x1="3" y1="6" x2="21" y2="6"/>
    <line x1="3" y1="18" x2="21" y2="18"/>
  </symbol>

  <!-- Close Icon -->
  <symbol id="icon-close" viewBox="0 0 24 24" fill="none" stroke="currentColor" stroke-width="2">
    <line x1="18" y1="6" x2="6" y2="18"/>
    <line x1="6" y1="6" x2="18" y2="18"/>
  </symbol>

  <!-- Star Icon -->
  <symbol id="icon-star" viewBox="0 0 24 24" fill="currentColor">
    <polygon points="12,2 15.09,8.26 22,9.27 17,14.14 18.18,21.02 12,17.77 5.82,21.02 7,14.14 2,9.27 8.91,8.26"/>
  </symbol>

  <!-- Facebook Icon -->
  <symbol id="icon-facebook" viewBox="0 0 24 24" fill="currentColor">
    <path d="M18 2h-3a5 5 0 0 0-5 5v3H7v4h3v8h4v-8h3l1-4h-4V7a1 1 0 0 1 1-1h3z"/>
  </symbol>

  <!-- YouTube Icon -->
  <symbol id="icon-youtube" viewBox="0 0 24 24" fill="currentColor">
    <path d="M22.54 6.42a2.78 2.78 0 0 0-1.94-2C18.88 4 12 4 12 4s-6.88 0-8.6.46a2.78 2.78 0 0 0-1.94 2A29 29 0 0 0 1 11.75a29 29 0 0 0 .46 5.33A2.78 2.78 0 0 0 3.4 19c1.72.46 8.6.46 8.6.46s6.88 0 8.6-.46a2.78 2.78 0 0 0 1.94-2 29 29 0 0 0 .46-5.25 29 29 0 0 0-.46-5.33z"/>
    <polygon points="9.75,15.02 15.5,11.75 9.75,8.48" fill="#fff"/>
  </symbol>

  <!-- Zalo Icon (simplified) -->
  <symbol id="icon-zalo" viewBox="0 0 24 24" fill="currentColor">
    <path d="M12 2C6.48 2 2 6.48 2 12s4.48 10 10 10 10-4.48 10-10S17.52 2 12 2zm4.64 6.8c-.15 1.58-.8 5.42-1.13 7.19-.14.75-.42 1-.68 1.03-.58.05-1.02-.38-1.58-.75-.88-.58-1.38-.94-2.23-1.5-.99-.65-.35-1.01.22-1.59.15-.15 2.71-2.48 2.76-2.69a.2.2 0 0 0-.05-.18c-.06-.05-.14-.03-.21-.02-.09.02-1.49.95-4.22 2.79-.4.27-.76.41-1.08.4-.36-.01-1.04-.2-1.55-.37-.63-.2-1.12-.31-1.08-.66.02-.18.27-.36.74-.55 2.92-1.27 4.86-2.11 5.83-2.51 2.78-1.16 3.35-1.36 3.73-1.36.08 0 .27.02.39.12.1.08.13.19.14.27-.01.06.01.24 0 .38z"/>
  </symbol>

  <!-- Messenger Icon -->
  <symbol id="icon-messenger" viewBox="0 0 24 24" fill="currentColor">
    <path d="M12 2C6.36 2 2 6.13 2 11.7c0 2.91 1.19 5.44 3.14 7.17.16.13.26.35.27.57l.05 1.78c.04.57.61.94 1.13.71l1.98-.87c.17-.07.36-.09.53-.05.86.23 1.78.35 2.9.35 5.64 0 10-4.13 10-9.7C22 6.13 17.64 2 12 2zm5.89 7.54l-2.89 4.54c-.45.73-1.42.89-2.07.34l-2.29-1.74c-.19-.15-.46-.14-.64.01l-3.07 2.34c-.41.32-.95-.15-.68-.6l2.89-4.54c.45-.73 1.42-.89 2.07-.34l2.29 1.74c.19.15.46.14.64-.01l3.07-2.34c.41-.32.95.15.68.6z"/>
  </symbol>

  <!-- Warehouse/Box Icon -->
  <symbol id="icon-warehouse" viewBox="0 0 24 24" fill="currentColor">
    <path d="M22 21V7L12 1 2 7v14h5v-9h10v9h5zm-11-2H9v-2h2v2zm4 0h-2v-2h2v2zm-4-4H9v-2h2v2zm4 0h-2v-2h2v2z"/>
  </symbol>

  <!-- Wrench/Support Icon -->
  <symbol id="icon-support" viewBox="0 0 24 24" fill="currentColor">
    <path d="M22.7 19l-9.1-9.1c.9-2.3.4-5-1.5-6.9-2-2-5-2.4-7.4-1.3L9 6 6 9 1.6 4.7C.4 7.1.9 10.1 2.9 12.1c1.9 1.9 4.6 2.4 6.9 1.5l9.1 9.1c.4.4 1 .4 1.4 0l2.3-2.3c.5-.4.5-1.1.1-1.4z"/>
  </symbol>

  <!-- Eye Icon (viewer) -->
  <symbol id="icon-eye" viewBox="0 0 24 24" fill="none" stroke="currentColor" stroke-width="2">
    <path d="M1 12s4-8 11-8 11 8 11 8-4 8-11 8-11-8-11-8z"/>
    <circle cx="12" cy="12" r="3"/>
  </symbol>

  <!-- Download Icon -->
  <symbol id="icon-download" viewBox="0 0 24 24" fill="none" stroke="currentColor" stroke-width="2">
    <path d="M21 15v4a2 2 0 0 1-2 2H5a2 2 0 0 1-2-2v-4"/>
    <polyline points="7,10 12,15 17,10"/>
    <line x1="12" y1="15" x2="12" y2="3"/>
  </symbol>

  <!-- History/Scroll Icon -->
  <symbol id="icon-history" viewBox="0 0 24 24" fill="currentColor">
    <path d="M13 3c-4.97 0-9 4.03-9 9H1l3.89 3.89.07.14L9 12H6c0-3.87 3.13-7 7-7s7 3.13 7 7-3.13 7-7 7c-1.93 0-3.68-.79-4.94-2.06l-1.42 1.42C8.27 19.99 10.51 21 13 21c4.97 0 9-4.03 9-9s-4.03-9-9-9zm-1 5v5l4.28 2.54.72-1.21-3.5-2.08V8H12z"/>
  </symbol>

  <!-- Team/Users Icon -->
  <symbol id="icon-team" viewBox="0 0 24 24" fill="currentColor">
    <path d="M16 11c1.66 0 2.99-1.34 2.99-3S17.66 5 16 5c-1.66 0-3 1.34-3 3s1.34 3 3 3zm-8 0c1.66 0 2.99-1.34 2.99-3S9.66 5 8 5C6.34 5 5 6.34 5 8s1.34 3 3 3zm0 2c-2.33 0-7 1.17-7 3.5V19h14v-2.5c0-2.33-4.67-3.5-7-3.5zm8 0c-.29 0-.62.02-.97.05 1.16.84 1.97 1.97 1.97 3.45V19h6v-2.5c0-2.33-4.67-3.5-7-3.5z"/>
  </symbol>

  <!-- Lightbulb/Culture Icon -->
  <symbol id="icon-lightbulb" viewBox="0 0 24 24" fill="currentColor">
    <path d="M9 21c0 .55.45 1 1 1h4c.55 0 1-.45 1-1v-1H9v1zm3-19C8.14 2 5 5.14 5 9c0 2.38 1.19 4.47 3 5.74V17c0 .55.45 1 1 1h6c.55 0 1-.45 1-1v-2.26c1.81-1.27 3-3.36 3-5.74 0-3.86-3.14-7-7-7zm2.85 11.1l-.85.6V16h-4v-2.3l-.85-.6C7.8 12.16 7 10.63 7 9c0-2.76 2.24-5 5-5s5 2.24 5 5c0 1.63-.8 3.16-2.15 4.1z"/>
  </symbol>

  <!-- Rocket/Digital Icon -->
  <symbol id="icon-rocket" viewBox="0 0 24 24" fill="currentColor">
    <path d="M9.19 6.35c-2.04 2.29-3.44 5.58-3.57 5.89L2 10.69l4.05-4.05c.47-.47 1.15-.68 1.81-.55l1.33.26zM11.17 17s3.74-1.55 5.89-3.7c5.4-5.4 4.5-9.62 4.21-10.57-.95-.3-5.17-1.19-10.57 4.21C8.55 9.09 7 12.83 7 12.83L11.17 17zm6.48-2.19c-2.29 2.04-5.58 3.44-5.89 3.57L13.31 22l4.05-4.05c.47-.47.68-1.15.55-1.81l-.26-1.33zM9 18c0 .83-.34 1.58-.88 2.12C6.94 21.3 2 22 2 22s.7-4.94 1.88-6.12C4.42 15.34 5.17 15 6 15c1.66 0 3 1.34 3 3zm4-9c0-1.1.9-2 2-2s2 .9 2 2-.9 2-2 2-2-.9-2-2z"/>
  </symbol>

  <!-- Handshake/Partners Icon -->
  <symbol id="icon-handshake" viewBox="0 0 24 24" fill="currentColor">
    <path d="M12.22 19.85c-.18.18-.5.21-.71 0L6.5 14.84c-.35-.35-.35-.92 0-1.27l.71-.71 4.24 4.24c.59.59 1.54.59 2.12 0l4.24-4.24.71.71c.35.35.35.92 0 1.27l-5.01 5.01c-.21.21-.52.18-.71 0l-.58-.59zM8.27 3l3.18 3.18c.78.78.78 2.05 0 2.83l-2.12 2.12c-.78.78-2.05.78-2.83 0L3.32 8 8.27 3zm7.46 0l3.18 3.18c.78.78.78 2.05 0 2.83l-2.12 2.12c-.78.78-2.05.78-2.83 0L10.78 8l4.95-5z"/>
  </symbol>

</svg>
